<?xml version="1.0" encoding="UTF-8"?><svg id="Layer_1" xmlns="http://www.w3.org/2000/svg" viewBox="0 0 125 49.48"><defs><style>.cls-1{fill:#efce95;}</style></defs><path class="cls-1" d="M7.59,27.91v-.37c.85-.25,1.13-.9,1.13-3.22v-12.59c0-2.31-.28-2.96-1.13-3.22v-.37h13.13l.31,3.11-.31.08c-.85-2.03-2.37-2.77-5.25-2.77h-4.43v17.64c0,.82.45,1.27,1.27,1.27h3.47c2.71,0,4.18-.71,5.19-2.82l.31.06-.2,3.19H7.59Z"/><path class="cls-1" d="M14.76,18.22v-.31c1.33,0,1.89-1.07,1.89-2h.31c0,.93.62,2,1.86,2v.31c-1.24,0-1.86.99-1.86,1.95h-.31c0-.96-.56-1.95-1.89-1.95Z"/><path class="cls-1" d="M25.94,20.63v-8.89c0-2.31-.25-2.96-1.13-3.22v-.37h4.57v.37c-.85.25-1.13.9-1.13,3.22v8.72c0,5.25,2.91,7.14,6.58,7.14,2.43,0,5.67-1.61,5.67-7.14v-7.59c0-3.22-.68-4.01-1.92-4.35v-.37h3.5v.37c-.85.25-1.13.9-1.13,3.22v8.64c0,5.67-3.11,7.82-7.03,7.82s-7.99-1.89-7.99-7.57Z"/><path class="cls-1" d="M47.37,10.83v12.37c0,3.22.68,4.01,1.95,4.35v.37h-3.53v-.37c.85-.25,1.13-.9,1.13-3.22v-12.59c0-2.31-.34-2.96-1.47-3.22v-.37h2.77l12.34,15.98v-11.26c0-3.22-.68-4.01-1.95-4.35v-.37h3.56v.37c-.88.25-1.13.9-1.13,3.22v16.4h-.37l-13.3-17.31Z"/><path class="cls-1" d="M66.17,18c0-5.79,4.07-10.08,10.05-10.08,4.77,0,9.99,3.27,9.99,10.19s-5.25,10.08-9.99,10.08-10.05-3.19-10.05-10.19ZM84.01,19.98c-.2-5.9-3.9-11.41-8.95-11.41-4.29,0-6.8,3.19-6.63,7.79.2,5.67,3.92,11.12,8.98,11.12,4.52,0,6.75-3.27,6.61-7.51Z"/><path class="cls-1" d="M90.5,27.55c.85-.25,1.13-.9,1.13-3.22v-12.59c0-2.31-.28-2.96-1.13-3.22v-.37h4.57v.37c-.88.25-1.13.9-1.13,3.22v12.59c0,2.31.25,2.96,1.13,3.22v.37h-4.57v-.37Z"/><path class="cls-1" d="M98.58,27.55c.79-.25,1.5-.82,2.37-2.96l5.56-13.78c.2-.51.17-.88-.06-1.33l-.25-.59,2.12-.96,6.94,16.68c.88,2.12,1.55,2.68,2.15,2.94v.37h-4.38v-.37c.88-.25.65-.82-.25-2.94l-1.72-4.15h-7.96l-1.67,4.12c-.73,1.83-.62,2.77.34,2.96v.37h-3.19v-.37ZM110.89,20.04l-3.87-9.29-3.75,9.29h7.62Z"/><path class="cls-1" d="M29.45,38.36c0-2.43,1.77-4.09,3.98-4.09,1.28,0,2.23.56,2.9,1.4l-.57.37c-.5-.69-1.36-1.15-2.33-1.15-1.84,0-3.27,1.41-3.27,3.47s1.43,3.47,3.27,3.47c.97,0,1.84-.46,2.33-1.15l.57.36c-.7.86-1.62,1.41-2.9,1.41-2.22,0-3.98-1.66-3.98-4.09Z"/><path class="cls-1" d="M46.98,42.3l-.79-1.94h-4.21l-.79,1.94h-.76l3.23-7.9h.84l3.23,7.9h-.76ZM44.08,35.06l-1.88,4.68h3.78l-1.9-4.68Z"/><path class="cls-1" d="M52.46,42.3v-7.9h2.96c1.52,0,2.38,1.07,2.38,2.31s-.88,2.31-2.38,2.31h-2.29v3.28h-.68ZM55.35,35.02h-2.22v3.39h2.22c1.04,0,1.74-.7,1.74-1.69s-.7-1.69-1.74-1.69Z"/><path class="cls-1" d="M62.78,42.3v-7.9h.68v7.9h-.68Z"/><path class="cls-1" d="M70.99,42.3v-7.29h-2.58v-.62h5.85v.62h-2.58v7.29h-.69Z"/><path class="cls-1" d="M84.14,42.3l-.79-1.94h-4.21l-.79,1.94h-.76l3.23-7.9h.84l3.23,7.9h-.76ZM81.23,35.06l-1.88,4.68h3.78l-1.9-4.68Z"/><path class="cls-1" d="M89.61,42.3v-7.9h.68v7.29h3.83v.62h-4.5Z"/></svg>