<?xml version="1.0" encoding="UTF-8"?>
<svg xmlns="http://www.w3.org/2000/svg" xmlns:xlink="http://www.w3.org/1999/xlink" width="500px" height="250px" viewBox="0 0 126 63" version="1.1">
<g id="surface1">
<path style=" stroke:none;fill-rule:nonzero;fill:rgb(94.117647%,81.176472%,59.215689%);fill-opacity:1;" d="M 17.386719 33.765625 L 17.386719 33.460938 C 18.089844 33.25 18.324219 32.710938 18.324219 30.785156 L 18.324219 20.328125 C 18.324219 18.402344 18.089844 17.863281 17.386719 17.652344 L 17.386719 17.347656 L 28.292969 17.347656 L 28.550781 19.929688 L 28.292969 20 C 27.589844 18.308594 26.320312 17.699219 23.929688 17.699219 L 20.25 17.699219 L 20.25 32.359375 C 20.25 33.039062 20.625 33.414062 21.304688 33.414062 L 24.191406 33.414062 C 26.441406 33.414062 27.660156 32.828125 28.503906 31.070312 L 28.761719 31.117188 L 28.597656 33.769531 L 17.386719 33.769531 Z M 17.386719 33.765625 "/>
<path style=" stroke:none;fill-rule:nonzero;fill:rgb(94.117647%,81.176472%,59.215689%);fill-opacity:1;" d="M 23.34375 25.710938 L 23.34375 25.453125 C 24.445312 25.453125 24.914062 24.5625 24.914062 23.789062 L 25.171875 23.789062 C 25.171875 24.5625 25.6875 25.453125 26.71875 25.453125 L 26.71875 25.710938 C 25.6875 25.710938 25.171875 26.53125 25.171875 27.328125 L 24.914062 27.328125 C 24.914062 26.53125 24.445312 25.710938 23.34375 25.710938 Z M 23.34375 25.710938 "/>
<path style=" stroke:none;fill-rule:nonzero;fill:rgb(94.117647%,81.176472%,59.215689%);fill-opacity:1;" d="M 32.628906 27.714844 L 32.628906 20.328125 C 32.628906 18.402344 32.417969 17.863281 31.691406 17.652344 L 31.691406 17.347656 L 35.492188 17.347656 L 35.492188 17.652344 C 34.789062 17.863281 34.554688 18.402344 34.554688 20.328125 L 34.554688 27.574219 C 34.554688 31.9375 36.972656 33.507812 40.019531 33.507812 C 42.035156 33.507812 44.734375 32.171875 44.734375 27.574219 L 44.734375 21.265625 C 44.734375 18.59375 44.171875 17.933594 43.136719 17.65625 L 43.136719 17.351562 L 46.046875 17.351562 L 46.046875 17.65625 C 45.34375 17.867188 45.109375 18.40625 45.109375 20.328125 L 45.109375 27.503906 C 45.109375 32.222656 42.527344 34.003906 39.269531 34.003906 C 36.011719 34.003906 32.632812 32.429688 32.632812 27.71875 Z M 32.628906 27.714844 "/>
<path style=" stroke:none;fill-rule:nonzero;fill:rgb(94.117647%,81.176472%,59.215689%);fill-opacity:1;" d="M 50.429688 19.578125 L 50.429688 29.847656 C 50.429688 32.523438 50.992188 33.179688 52.046875 33.460938 L 52.046875 33.765625 L 49.117188 33.765625 L 49.117188 33.460938 C 49.820312 33.25 50.054688 32.710938 50.054688 30.785156 L 50.054688 20.328125 C 50.054688 18.402344 49.773438 17.863281 48.835938 17.652344 L 48.835938 17.347656 L 51.132812 17.347656 L 61.382812 30.621094 L 61.382812 21.265625 C 61.382812 18.59375 60.820312 17.933594 59.765625 17.65625 L 59.765625 17.351562 L 62.71875 17.351562 L 62.71875 17.65625 C 61.992188 17.867188 61.78125 18.40625 61.78125 20.328125 L 61.78125 33.953125 L 61.476562 33.953125 L 50.433594 19.578125 Z M 50.429688 19.578125 "/>
<path style=" stroke:none;fill-rule:nonzero;fill:rgb(94.117647%,81.176472%,59.215689%);fill-opacity:1;" d="M 66.050781 25.535156 C 66.050781 20.726562 69.425781 17.164062 74.398438 17.164062 C 78.363281 17.164062 82.703125 19.886719 82.703125 25.632812 C 82.703125 31.375 78.339844 34.003906 74.398438 34.003906 C 70.457031 34.003906 66.050781 31.351562 66.050781 25.535156 Z M 80.871094 27.175781 C 80.707031 22.273438 77.636719 17.699219 73.4375 17.699219 C 69.871094 17.699219 67.785156 20.351562 67.925781 24.175781 C 68.089844 28.890625 71.1875 33.414062 75.382812 33.414062 C 79.136719 33.414062 80.988281 30.695312 80.871094 27.175781 Z M 80.871094 27.175781 "/>
<path style=" stroke:none;fill-rule:nonzero;fill:rgb(94.117647%,81.176472%,59.215689%);fill-opacity:1;" d="M 86.265625 33.460938 C 86.96875 33.25 87.203125 32.710938 87.203125 30.785156 L 87.203125 20.328125 C 87.203125 18.402344 86.96875 17.863281 86.265625 17.652344 L 86.265625 17.347656 L 90.066406 17.347656 L 90.066406 17.652344 C 89.335938 17.863281 89.128906 18.402344 89.128906 20.328125 L 89.128906 30.785156 C 89.128906 32.710938 89.339844 33.25 90.066406 33.460938 L 90.066406 33.765625 L 86.265625 33.765625 Z M 86.265625 33.460938 "/>
<path style=" stroke:none;fill-rule:nonzero;fill:rgb(94.117647%,81.176472%,59.215689%);fill-opacity:1;" d="M 92.972656 33.460938 C 93.628906 33.25 94.214844 32.78125 94.945312 31 L 99.5625 19.550781 C 99.726562 19.128906 99.703125 18.824219 99.515625 18.453125 L 99.304688 17.960938 L 101.0625 17.164062 L 106.832031 31.023438 C 107.554688 32.78125 108.121094 33.25 108.613281 33.464844 L 108.613281 33.769531 L 104.976562 33.769531 L 104.976562 33.464844 C 105.703125 33.25 105.515625 32.78125 104.765625 31.023438 L 103.335938 27.578125 L 96.722656 27.578125 L 95.339844 31 C 94.730469 32.527344 94.824219 33.300781 95.621094 33.464844 L 95.621094 33.769531 L 92.96875 33.769531 L 92.96875 33.464844 Z M 103.195312 27.222656 L 99.984375 19.507812 L 96.863281 27.222656 Z M 103.195312 27.222656 "/>
<path style=" stroke:none;fill-rule:nonzero;fill:rgb(94.117647%,81.176472%,59.215689%);fill-opacity:1;" d="M 35.542969 42.441406 C 35.542969 40.421875 37.007812 39.046875 38.847656 39.046875 C 39.910156 39.046875 40.699219 39.511719 41.261719 40.210938 L 40.789062 40.515625 C 40.375 39.941406 39.65625 39.558594 38.851562 39.558594 C 37.328125 39.558594 36.132812 40.730469 36.132812 42.441406 C 36.132812 44.152344 37.328125 45.324219 38.851562 45.324219 C 39.65625 45.324219 40.375 44.941406 40.789062 44.371094 L 41.261719 44.664062 C 40.679688 45.382812 39.910156 45.835938 38.847656 45.835938 C 37.007812 45.835938 35.542969 44.457031 35.542969 42.441406 Z M 35.542969 42.441406 "/>
<path style=" stroke:none;fill-rule:nonzero;fill:rgb(94.117647%,81.176472%,59.215689%);fill-opacity:1;" d="M 50.109375 45.71875 L 49.449219 44.105469 L 45.953125 44.105469 L 45.292969 45.71875 L 44.660156 45.71875 L 47.347656 39.15625 L 48.046875 39.15625 L 50.734375 45.71875 L 50.101562 45.71875 Z M 47.695312 39.707031 L 46.132812 43.59375 L 49.269531 43.59375 Z M 47.695312 39.707031 "/>
<path style=" stroke:none;fill-rule:nonzero;fill:rgb(94.117647%,81.176472%,59.215689%);fill-opacity:1;" d="M 54.65625 45.71875 L 54.65625 39.15625 L 57.117188 39.15625 C 58.375 39.15625 59.09375 40.042969 59.09375 41.074219 C 59.09375 42.109375 58.367188 42.996094 57.117188 42.996094 L 55.214844 42.996094 L 55.214844 45.722656 L 54.652344 45.722656 Z M 57.058594 39.667969 L 55.21875 39.667969 L 55.21875 42.480469 L 57.058594 42.480469 C 57.925781 42.480469 58.503906 41.902344 58.503906 41.074219 C 58.503906 40.246094 57.925781 39.664062 57.058594 39.664062 Z M 57.058594 39.667969 "/>
<path style=" stroke:none;fill-rule:nonzero;fill:rgb(94.117647%,81.176472%,59.215689%);fill-opacity:1;" d="M 63.230469 45.71875 L 63.230469 39.15625 L 63.792969 39.15625 L 63.792969 45.71875 Z M 63.230469 45.71875 "/>
<path style=" stroke:none;fill-rule:nonzero;fill:rgb(94.117647%,81.176472%,59.215689%);fill-opacity:1;" d="M 70.046875 45.71875 L 70.046875 39.667969 L 67.902344 39.667969 L 67.902344 39.15625 L 72.765625 39.15625 L 72.765625 39.667969 L 70.621094 39.667969 L 70.621094 45.71875 Z M 70.046875 45.71875 "/>
<path style=" stroke:none;fill-rule:nonzero;fill:rgb(94.117647%,81.176472%,59.215689%);fill-opacity:1;" d="M 80.976562 45.71875 L 80.316406 44.105469 L 76.820312 44.105469 L 76.160156 45.71875 L 75.53125 45.71875 L 78.214844 39.15625 L 78.914062 39.15625 L 81.601562 45.71875 L 80.96875 45.71875 Z M 78.5625 39.707031 L 77 43.59375 L 80.136719 43.59375 Z M 78.5625 39.707031 "/>
<path style=" stroke:none;fill-rule:nonzero;fill:rgb(94.117647%,81.176472%,59.215689%);fill-opacity:1;" d="M 85.523438 45.71875 L 85.523438 39.15625 L 86.085938 39.15625 L 86.085938 45.207031 L 89.265625 45.207031 L 89.265625 45.71875 Z M 85.523438 45.71875 "/>
</g>
</svg>
