<?xml version="1.0" encoding="UTF-8"?>
<svg xmlns="http://www.w3.org/2000/svg" xmlns:xlink="http://www.w3.org/1999/xlink" width="300px" height="150px" viewBox="0 0 250 125" version="1.1">
<g id="surface1">
<path style=" stroke:none;fill-rule:nonzero;fill:rgb(94.117647%,81.176472%,59.215689%);fill-opacity:1;" d="M 34.496094 66.996094 L 34.496094 66.390625 C 35.890625 65.96875 36.355469 64.898438 36.355469 61.085938 L 36.355469 40.328125 C 36.355469 36.515625 35.890625 35.445312 34.496094 35.023438 L 34.496094 34.421875 L 56.136719 34.421875 L 56.644531 39.539062 L 56.136719 39.679688 C 54.738281 36.328125 52.226562 35.121094 47.480469 35.121094 L 40.175781 35.121094 L 40.175781 64.203125 C 40.175781 65.554688 40.921875 66.300781 42.269531 66.300781 L 47.996094 66.300781 C 52.460938 66.300781 54.878906 65.136719 56.554688 61.644531 L 57.066406 61.738281 L 56.738281 67 L 34.496094 67 Z M 34.496094 66.996094 "/>
<path style=" stroke:none;fill-rule:nonzero;fill:rgb(94.117647%,81.176472%,59.215689%);fill-opacity:1;" d="M 46.316406 51.015625 L 46.316406 50.503906 C 48.5 50.503906 49.433594 48.734375 49.433594 47.199219 L 49.945312 47.199219 C 49.945312 48.734375 50.96875 50.503906 53.015625 50.503906 L 53.015625 51.015625 C 50.964844 51.015625 49.945312 52.644531 49.945312 54.226562 L 49.433594 54.226562 C 49.433594 52.644531 48.503906 51.015625 46.316406 51.015625 Z M 46.316406 51.015625 "/>
<path style=" stroke:none;fill-rule:nonzero;fill:rgb(94.117647%,81.176472%,59.215689%);fill-opacity:1;" d="M 64.738281 54.988281 L 64.738281 40.328125 C 64.738281 36.515625 64.320312 35.445312 62.878906 35.023438 L 62.878906 34.421875 L 70.421875 34.421875 L 70.421875 35.023438 C 69.023438 35.445312 68.558594 36.515625 68.558594 40.328125 L 68.558594 54.710938 C 68.558594 63.363281 73.355469 66.484375 79.398438 66.484375 C 83.398438 66.484375 88.753906 63.835938 88.753906 54.710938 L 88.753906 42.195312 C 88.753906 36.890625 87.640625 35.585938 85.589844 35.03125 L 85.589844 34.425781 L 91.359375 34.425781 L 91.359375 35.03125 C 89.964844 35.449219 89.5 36.519531 89.5 40.335938 L 89.5 54.574219 C 89.5 63.929688 84.378906 67.464844 77.914062 67.464844 C 71.449219 67.464844 64.746094 64.34375 64.746094 54.996094 Z M 64.738281 54.988281 "/>
<path style=" stroke:none;fill-rule:nonzero;fill:rgb(94.117647%,81.176472%,59.215689%);fill-opacity:1;" d="M 100.058594 38.84375 L 100.058594 59.226562 C 100.058594 64.53125 101.175781 65.835938 103.269531 66.390625 L 103.269531 66.996094 L 97.453125 66.996094 L 97.453125 66.390625 C 98.851562 65.96875 99.316406 64.898438 99.316406 61.085938 L 99.316406 40.328125 C 99.316406 36.515625 98.753906 35.445312 96.894531 35.023438 L 96.894531 34.421875 L 101.453125 34.421875 L 121.789062 60.761719 L 121.789062 42.195312 C 121.789062 36.890625 120.675781 35.585938 118.578125 35.03125 L 118.578125 34.425781 L 124.445312 34.425781 L 124.445312 35.03125 C 123 35.449219 122.585938 36.519531 122.585938 40.335938 L 122.585938 67.371094 L 121.980469 67.371094 L 100.066406 38.84375 Z M 100.058594 38.84375 "/>
<path style=" stroke:none;fill-rule:nonzero;fill:rgb(94.117647%,81.176472%,59.215689%);fill-opacity:1;" d="M 131.050781 50.664062 C 131.050781 41.125 137.75 34.054688 147.613281 34.054688 C 155.480469 34.054688 164.089844 39.453125 164.089844 50.855469 C 164.089844 62.253906 155.433594 67.464844 147.613281 67.464844 C 139.796875 67.464844 131.050781 62.203125 131.050781 50.664062 Z M 160.460938 53.921875 C 160.136719 44.195312 154.039062 35.121094 145.710938 35.121094 C 138.636719 35.121094 134.496094 40.378906 134.773438 47.964844 C 135.101562 57.320312 141.246094 66.300781 149.570312 66.300781 C 157.015625 66.300781 160.691406 60.898438 160.460938 53.921875 Z M 160.460938 53.921875 "/>
<path style=" stroke:none;fill-rule:nonzero;fill:rgb(94.117647%,81.176472%,59.215689%);fill-opacity:1;" d="M 171.160156 66.390625 C 172.554688 65.96875 173.019531 64.898438 173.019531 61.085938 L 173.019531 40.328125 C 173.019531 36.515625 172.554688 35.445312 171.160156 35.023438 L 171.160156 34.421875 L 178.699219 34.421875 L 178.699219 35.023438 C 177.253906 35.445312 176.839844 36.515625 176.839844 40.328125 L 176.839844 61.085938 C 176.839844 64.898438 177.261719 65.96875 178.699219 66.390625 L 178.699219 66.996094 L 171.160156 66.996094 Z M 171.160156 66.390625 "/>
<path style=" stroke:none;fill-rule:nonzero;fill:rgb(94.117647%,81.176472%,59.215689%);fill-opacity:1;" d="M 184.46875 66.390625 C 185.773438 65.96875 186.933594 65.039062 188.378906 61.503906 L 197.546875 38.796875 C 197.871094 37.953125 197.824219 37.351562 197.449219 36.609375 L 197.03125 35.636719 L 200.519531 34.054688 L 211.964844 61.554688 C 213.40625 65.046875 214.523438 65.976562 215.5 66.394531 L 215.5 67 L 208.289062 67 L 208.289062 66.394531 C 209.730469 65.976562 209.359375 65.046875 207.871094 61.554688 L 205.03125 54.714844 L 191.910156 54.714844 L 189.164062 61.511719 C 187.953125 64.535156 188.140625 66.070312 189.726562 66.394531 L 189.726562 67 L 184.464844 67 L 184.464844 66.394531 Z M 204.753906 54.015625 L 198.378906 38.703125 L 192.191406 54.015625 Z M 204.753906 54.015625 "/>
<path style=" stroke:none;fill-rule:nonzero;fill:rgb(94.117647%,81.176472%,59.215689%);fill-opacity:1;" d="M 70.519531 84.210938 C 70.519531 80.203125 73.429688 77.476562 77.078125 77.476562 C 79.191406 77.476562 80.75 78.394531 81.863281 79.78125 L 80.929688 80.386719 C 80.109375 79.25 78.683594 78.488281 77.085938 78.488281 C 74.058594 78.488281 71.695312 80.816406 71.695312 84.210938 C 71.695312 87.605469 74.058594 89.929688 77.085938 89.929688 C 78.683594 89.929688 80.109375 89.171875 80.929688 88.035156 L 81.863281 88.621094 C 80.714844 90.046875 79.191406 90.945312 77.078125 90.945312 C 73.429688 90.945312 70.519531 88.210938 70.519531 84.210938 Z M 70.519531 84.210938 "/>
<path style=" stroke:none;fill-rule:nonzero;fill:rgb(94.117647%,81.176472%,59.215689%);fill-opacity:1;" d="M 99.421875 90.714844 L 98.109375 87.511719 L 91.175781 87.511719 L 89.863281 90.714844 L 88.613281 90.714844 L 93.945312 77.691406 L 95.328125 77.691406 L 100.660156 90.714844 L 99.410156 90.714844 Z M 94.636719 78.78125 L 91.53125 86.496094 L 97.761719 86.496094 Z M 94.636719 78.78125 "/>
<path style=" stroke:none;fill-rule:nonzero;fill:rgb(94.117647%,81.176472%,59.215689%);fill-opacity:1;" d="M 108.445312 90.714844 L 108.445312 77.691406 L 113.324219 77.691406 C 115.824219 77.691406 117.25 79.449219 117.25 81.5 C 117.25 83.550781 115.804688 85.308594 113.324219 85.308594 L 109.554688 85.308594 L 109.554688 90.71875 L 108.441406 90.71875 Z M 113.210938 78.703125 L 109.558594 78.703125 L 109.558594 84.289062 L 113.210938 84.289062 C 114.929688 84.289062 116.078125 83.140625 116.078125 81.496094 C 116.078125 79.851562 114.929688 78.699219 113.210938 78.699219 Z M 113.210938 78.703125 "/>
<path style=" stroke:none;fill-rule:nonzero;fill:rgb(94.117647%,81.176472%,59.215689%);fill-opacity:1;" d="M 125.453125 90.714844 L 125.453125 77.691406 L 126.570312 77.691406 L 126.570312 90.714844 Z M 125.453125 90.714844 "/>
<path style=" stroke:none;fill-rule:nonzero;fill:rgb(94.117647%,81.176472%,59.215689%);fill-opacity:1;" d="M 138.984375 90.714844 L 138.984375 78.703125 L 134.730469 78.703125 L 134.730469 77.691406 L 144.375 77.691406 L 144.375 78.703125 L 140.121094 78.703125 L 140.121094 90.714844 Z M 138.984375 90.714844 "/>
<path style=" stroke:none;fill-rule:nonzero;fill:rgb(94.117647%,81.176472%,59.215689%);fill-opacity:1;" d="M 160.664062 90.714844 L 159.355469 87.511719 L 152.421875 87.511719 L 151.109375 90.714844 L 149.859375 90.714844 L 155.191406 77.691406 L 156.574219 77.691406 L 161.90625 90.714844 L 160.65625 90.714844 Z M 155.878906 78.78125 L 152.773438 86.496094 L 159.003906 86.496094 Z M 155.878906 78.78125 "/>
<path style=" stroke:none;fill-rule:nonzero;fill:rgb(94.117647%,81.176472%,59.215689%);fill-opacity:1;" d="M 169.691406 90.714844 L 169.691406 77.691406 L 170.804688 77.691406 L 170.804688 89.699219 L 177.113281 89.699219 L 177.113281 90.714844 Z M 169.691406 90.714844 "/>
</g>
</svg>
