<?xml version="1.0" encoding="UTF-8"?><svg id="Layer_1" xmlns="http://www.w3.org/2000/svg" viewBox="0 0 500 250"><defs><style>.cls-1{fill:#19314b;}</style></defs><path class="cls-1" d="M68.99,133.99v-1.21c2.79-.84,3.72-2.98,3.72-10.61v-41.51c0-7.63-.93-9.77-3.72-10.61v-1.21h43.28l1.02,10.24-1.02.28c-2.79-6.7-7.82-9.12-17.31-9.12h-14.61v58.17c0,2.7,1.49,4.19,4.19,4.19h11.45c8.93,0,13.77-2.33,17.12-9.31l1.02.19-.65,10.52h-44.49Z"/><path class="cls-1" d="M92.63,102.03v-1.02c4.37,0,6.24-3.54,6.24-6.61h1.02c0,3.07,2.05,6.61,6.14,6.61v1.02c-4.1,0-6.14,3.26-6.14,6.42h-1.02c0-3.16-1.86-6.42-6.24-6.42Z"/><path class="cls-1" d="M129.48,109.98v-29.32c0-7.63-.84-9.77-3.72-10.61v-1.21h15.08v1.21c-2.79.84-3.72,2.98-3.72,10.61v28.76c0,17.31,9.59,23.55,21.68,23.55,8,0,18.71-5.3,18.71-23.55v-25.03c0-10.61-2.23-13.22-6.33-14.33v-1.21h11.54v1.21c-2.79.84-3.72,2.98-3.72,10.61v28.48c0,18.71-10.24,25.78-23.17,25.78s-26.34-6.24-26.34-24.94Z"/><path class="cls-1" d="M200.12,77.69v40.76c0,10.61,2.23,13.22,6.42,14.33v1.21h-11.63v-1.21c2.79-.84,3.72-2.98,3.72-10.61v-41.51c0-7.63-1.12-9.77-4.84-10.61v-1.21h9.12l40.67,52.68v-37.13c0-10.61-2.23-13.22-6.42-14.33v-1.21h11.73v1.21c-2.89.84-3.72,2.98-3.72,10.61v54.07h-1.21l-43.83-57.05Z"/><path class="cls-1" d="M262.1,101.33c0-19.08,13.4-33.22,33.13-33.22,15.73,0,32.95,10.8,32.95,33.6s-17.31,33.22-32.95,33.22-33.13-10.52-33.13-33.6ZM320.92,107.84c-.65-19.45-12.84-37.6-29.5-37.6-14.15,0-22.43,10.52-21.87,25.69.65,18.71,12.94,36.67,29.59,36.67,14.89,0,22.24-10.8,21.78-24.76Z"/><path class="cls-1" d="M342.32,132.78c2.79-.84,3.72-2.98,3.72-10.61v-41.51c0-7.63-.93-9.77-3.72-10.61v-1.21h15.08v1.21c-2.89.84-3.72,2.98-3.72,10.61v41.51c0,7.63.84,9.77,3.72,10.61v1.21h-15.08v-1.21Z"/><path class="cls-1" d="M368.94,132.78c2.61-.84,4.93-2.7,7.82-9.77l18.33-45.42c.65-1.68.56-2.89-.19-4.37l-.84-1.95,6.98-3.16,22.89,55c2.88,6.98,5.12,8.84,7.07,9.68v1.21h-14.42v-1.21c2.88-.84,2.14-2.7-.84-9.68l-5.68-13.68h-26.24l-5.49,13.59c-2.42,6.05-2.05,9.12,1.12,9.77v1.21h-10.52v-1.21ZM409.51,108.03l-12.75-30.62-12.38,30.62h25.13Z"/><path class="cls-1" d="M141.04,168.42c0-8.01,5.82-13.47,13.12-13.47,4.22,0,7.34,1.84,9.57,4.61l-1.87,1.21c-1.64-2.27-4.49-3.79-7.69-3.79-6.05,0-10.78,4.65-10.78,11.44s4.73,11.44,10.78,11.44c3.2,0,6.05-1.52,7.69-3.79l1.87,1.17c-2.3,2.85-5.35,4.65-9.57,4.65-7.3,0-13.12-5.47-13.12-13.47Z"/><path class="cls-1" d="M198.84,181.43l-2.62-6.41h-13.87l-2.62,6.41h-2.5l10.66-26.05h2.77l10.66,26.05h-2.5ZM189.27,157.56l-6.21,15.43h12.46l-6.25-15.43Z"/><path class="cls-1" d="M216.89,181.43v-26.05h9.76c5,0,7.85,3.52,7.85,7.62s-2.89,7.62-7.85,7.62h-7.54v10.82h-2.23ZM226.42,157.41h-7.3v11.17h7.3c3.44,0,5.74-2.3,5.74-5.59s-2.3-5.59-5.74-5.59Z"/><path class="cls-1" d="M250.91,181.43v-26.05h2.23v26.05h-2.23Z"/><path class="cls-1" d="M277.97,181.43v-24.02h-8.51v-2.03h19.29v2.03h-8.51v24.02h-2.27Z"/><path class="cls-1" d="M321.33,181.43l-2.62-6.41h-13.87l-2.62,6.41h-2.5l10.66-26.05h2.77l10.66,26.05h-2.5ZM311.76,157.56l-6.21,15.43h12.46l-6.25-15.43Z"/><path class="cls-1" d="M339.38,181.43v-26.05h2.23v24.02h12.62v2.03h-14.84Z"/></svg>