<?xml version="1.0" encoding="UTF-8"?>
<svg xmlns="http://www.w3.org/2000/svg" xmlns:xlink="http://www.w3.org/1999/xlink" width="200px" height="100px" viewBox="0 0 200 100" version="1.1">
<g id="surface1">
<path style=" stroke:none;fill-rule:nonzero;fill:rgb(94.117647%,81.176472%,59.215689%);fill-opacity:1;" d="M 27.597656 53.597656 L 27.597656 53.113281 C 28.710938 52.777344 29.085938 51.921875 29.085938 48.867188 L 29.085938 32.265625 C 29.085938 29.210938 28.710938 28.355469 27.597656 28.019531 L 27.597656 27.535156 L 44.90625 27.535156 L 45.316406 31.632812 L 44.90625 31.742188 C 43.792969 29.0625 41.78125 28.097656 37.984375 28.097656 L 32.140625 28.097656 L 32.140625 51.363281 C 32.140625 52.445312 32.734375 53.039062 33.816406 53.039062 L 38.394531 53.039062 C 41.96875 53.039062 43.902344 52.109375 45.242188 49.316406 L 45.652344 49.390625 L 45.390625 53.601562 L 27.597656 53.601562 Z M 27.597656 53.597656 "/>
<path style=" stroke:none;fill-rule:nonzero;fill:rgb(94.117647%,81.176472%,59.215689%);fill-opacity:1;" d="M 37.050781 40.8125 L 37.050781 40.402344 C 38.800781 40.402344 39.546875 38.988281 39.546875 37.761719 L 39.957031 37.761719 C 39.957031 38.988281 40.777344 40.402344 42.410156 40.402344 L 42.410156 40.8125 C 40.773438 40.8125 39.957031 42.117188 39.957031 43.378906 L 39.546875 43.378906 C 39.546875 42.117188 38.804688 40.8125 37.050781 40.8125 Z M 37.050781 40.8125 "/>
<path style=" stroke:none;fill-rule:nonzero;fill:rgb(94.117647%,81.176472%,59.215689%);fill-opacity:1;" d="M 51.792969 43.992188 L 51.792969 32.265625 C 51.792969 29.210938 51.457031 28.355469 50.304688 28.019531 L 50.304688 27.535156 L 56.335938 27.535156 L 56.335938 28.019531 C 55.21875 28.355469 54.847656 29.210938 54.847656 32.265625 L 54.847656 43.769531 C 54.847656 50.691406 58.683594 53.1875 63.519531 53.1875 C 66.71875 53.1875 71.003906 51.066406 71.003906 43.769531 L 71.003906 33.757812 C 71.003906 29.511719 70.113281 28.46875 68.472656 28.023438 L 68.472656 27.539062 L 73.089844 27.539062 L 73.089844 28.023438 C 71.972656 28.359375 71.601562 29.214844 71.601562 32.269531 L 71.601562 43.660156 C 71.601562 51.144531 67.503906 53.972656 62.332031 53.972656 C 57.160156 53.972656 51.796875 51.476562 51.796875 43.996094 Z M 51.792969 43.992188 "/>
<path style=" stroke:none;fill-rule:nonzero;fill:rgb(94.117647%,81.176472%,59.215689%);fill-opacity:1;" d="M 80.046875 31.074219 L 80.046875 47.378906 C 80.046875 51.625 80.941406 52.667969 82.617188 53.113281 L 82.617188 53.597656 L 77.964844 53.597656 L 77.964844 53.113281 C 79.078125 52.777344 79.453125 51.921875 79.453125 48.867188 L 79.453125 32.265625 C 79.453125 29.210938 79.003906 28.355469 77.515625 28.019531 L 77.515625 27.535156 L 81.164062 27.535156 L 97.433594 48.609375 L 97.433594 33.757812 C 97.433594 29.511719 96.539062 28.46875 94.863281 28.023438 L 94.863281 27.539062 L 99.554688 27.539062 L 99.554688 28.023438 C 98.398438 28.359375 98.066406 29.214844 98.066406 32.269531 L 98.066406 53.894531 L 97.585938 53.894531 L 80.050781 31.074219 Z M 80.046875 31.074219 "/>
<path style=" stroke:none;fill-rule:nonzero;fill:rgb(94.117647%,81.176472%,59.215689%);fill-opacity:1;" d="M 104.839844 40.53125 C 104.839844 32.898438 110.199219 27.242188 118.09375 27.242188 C 124.382812 27.242188 131.273438 31.5625 131.273438 40.683594 C 131.273438 49.804688 124.347656 53.972656 118.09375 53.972656 C 111.835938 53.972656 104.839844 49.765625 104.839844 40.53125 Z M 128.367188 43.136719 C 128.109375 35.355469 123.230469 28.097656 116.566406 28.097656 C 110.90625 28.097656 107.597656 32.304688 107.820312 38.371094 C 108.078125 45.855469 112.996094 53.039062 119.65625 53.039062 C 125.613281 53.039062 128.550781 48.71875 128.367188 43.136719 Z M 128.367188 43.136719 "/>
<path style=" stroke:none;fill-rule:nonzero;fill:rgb(94.117647%,81.176472%,59.215689%);fill-opacity:1;" d="M 136.929688 53.113281 C 138.042969 52.777344 138.414062 51.921875 138.414062 48.867188 L 138.414062 32.265625 C 138.414062 29.210938 138.042969 28.355469 136.929688 28.019531 L 136.929688 27.535156 L 142.960938 27.535156 L 142.960938 28.019531 C 141.804688 28.355469 141.472656 29.210938 141.472656 32.265625 L 141.472656 48.867188 C 141.472656 51.921875 141.808594 52.777344 142.960938 53.113281 L 142.960938 53.597656 L 136.929688 53.597656 Z M 136.929688 53.113281 "/>
<path style=" stroke:none;fill-rule:nonzero;fill:rgb(94.117647%,81.176472%,59.215689%);fill-opacity:1;" d="M 147.574219 53.113281 C 148.621094 52.777344 149.546875 52.03125 150.703125 49.203125 L 158.035156 31.035156 C 158.296875 30.363281 158.261719 29.878906 157.960938 29.289062 L 157.625 28.507812 L 160.414062 27.242188 L 169.570312 49.242188 C 170.722656 52.035156 171.621094 52.78125 172.398438 53.117188 L 172.398438 53.601562 L 166.632812 53.601562 L 166.632812 53.117188 C 167.785156 52.78125 167.488281 52.035156 166.296875 49.242188 L 164.023438 43.773438 L 153.527344 43.773438 L 151.332031 49.207031 C 150.363281 51.628906 150.511719 52.855469 151.78125 53.117188 L 151.78125 53.601562 L 147.570312 53.601562 L 147.570312 53.117188 Z M 163.804688 43.210938 L 158.703125 30.964844 L 153.753906 43.210938 Z M 163.804688 43.210938 "/>
<path style=" stroke:none;fill-rule:nonzero;fill:rgb(94.117647%,81.176472%,59.215689%);fill-opacity:1;" d="M 56.414062 67.367188 C 56.414062 64.164062 58.742188 61.980469 61.664062 61.980469 C 63.351562 61.980469 64.601562 62.714844 65.492188 63.824219 L 64.742188 64.308594 C 64.089844 63.398438 62.949219 62.792969 61.667969 62.792969 C 59.246094 62.792969 57.355469 64.652344 57.355469 67.367188 C 57.355469 70.085938 59.246094 71.945312 61.667969 71.945312 C 62.949219 71.945312 64.089844 71.335938 64.742188 70.429688 L 65.492188 70.894531 C 64.570312 72.035156 63.351562 72.757812 61.664062 72.757812 C 58.742188 72.757812 56.414062 70.566406 56.414062 67.367188 Z M 56.414062 67.367188 "/>
<path style=" stroke:none;fill-rule:nonzero;fill:rgb(94.117647%,81.176472%,59.215689%);fill-opacity:1;" d="M 79.535156 72.570312 L 78.488281 70.007812 L 72.941406 70.007812 L 71.890625 72.570312 L 70.890625 72.570312 L 75.15625 62.152344 L 76.265625 62.152344 L 80.527344 72.570312 L 79.527344 72.570312 Z M 75.707031 63.023438 L 73.222656 69.195312 L 78.207031 69.195312 Z M 75.707031 63.023438 "/>
<path style=" stroke:none;fill-rule:nonzero;fill:rgb(94.117647%,81.176472%,59.215689%);fill-opacity:1;" d="M 86.757812 72.570312 L 86.757812 62.152344 L 90.660156 62.152344 C 92.660156 62.152344 93.800781 63.558594 93.800781 65.199219 C 93.800781 66.839844 92.644531 68.246094 90.660156 68.246094 L 87.644531 68.246094 L 87.644531 72.574219 L 86.753906 72.574219 Z M 90.566406 62.964844 L 87.648438 62.964844 L 87.648438 67.433594 L 90.566406 67.433594 C 91.945312 67.433594 92.863281 66.511719 92.863281 65.195312 C 92.863281 63.878906 91.945312 62.960938 90.566406 62.960938 Z M 90.566406 62.964844 "/>
<path style=" stroke:none;fill-rule:nonzero;fill:rgb(94.117647%,81.176472%,59.215689%);fill-opacity:1;" d="M 100.363281 72.570312 L 100.363281 62.152344 L 101.257812 62.152344 L 101.257812 72.570312 Z M 100.363281 72.570312 "/>
<path style=" stroke:none;fill-rule:nonzero;fill:rgb(94.117647%,81.176472%,59.215689%);fill-opacity:1;" d="M 111.1875 72.570312 L 111.1875 62.964844 L 107.785156 62.964844 L 107.785156 62.152344 L 115.5 62.152344 L 115.5 62.964844 L 112.097656 62.964844 L 112.097656 72.570312 Z M 111.1875 72.570312 "/>
<path style=" stroke:none;fill-rule:nonzero;fill:rgb(94.117647%,81.176472%,59.215689%);fill-opacity:1;" d="M 128.53125 72.570312 L 127.484375 70.007812 L 121.9375 70.007812 L 120.886719 72.570312 L 119.886719 72.570312 L 124.152344 62.152344 L 125.261719 62.152344 L 129.523438 72.570312 L 128.523438 72.570312 Z M 124.703125 63.023438 L 122.21875 69.195312 L 127.203125 69.195312 Z M 124.703125 63.023438 "/>
<path style=" stroke:none;fill-rule:nonzero;fill:rgb(94.117647%,81.176472%,59.215689%);fill-opacity:1;" d="M 135.753906 72.570312 L 135.753906 62.152344 L 136.644531 62.152344 L 136.644531 71.761719 L 141.691406 71.761719 L 141.691406 72.570312 Z M 135.753906 72.570312 "/>
</g>
</svg>
